<?xml version="1.0" encoding="utf-8"?>
<!-- Generator: Adobe Illustrator 16.0.0, SVG Export Plug-In . SVG Version: 6.00 Build 0)  -->
<!DOCTYPE svg PUBLIC "-//W3C//DTD SVG 1.1//EN" "http://www.w3.org/Graphics/SVG/1.1/DTD/svg11.dtd">
<svg version="1.1" id="Layer_1" xmlns="http://www.w3.org/2000/svg" xmlns:xlink="http://www.w3.org/1999/xlink" x="0px" y="0px"
	 width="500px" height="500px" viewBox="0 0 500 500" enable-background="new 0 0 500 500" xml:space="preserve">
<g id="_x32_">
	<path d="M250.002-0.165c14.349,0,26.314,11.882,26.314,26.936v158.471l223.18,124.395v55.458l-223.18-64.173v115.674l52.607,38.821
		v45.952l-78.932-26.161l-78.908,26.143v-45.956l52.614-38.822V300.897L0.492,365.082v-55.459l223.206-124.394V26.759
		c0-15.054,11.934-26.935,26.293-26.935L250.002-0.165z"/>
	<path fill="none" stroke="#000000" stroke-width="0.2" d="M31.356,500.29c-17.26,0-31.256-13.995-31.256-31.261V31.359
		c0-17.265,13.996-31.261,31.256-31.261h437.68c17.266,0,31.261,13.996,31.261,31.263v437.67c0,17.266-13.995,31.261-31.261,31.261
		H31.366L31.356,500.29z"/>
</g>
</svg>
